# xmcd CD database file
#
# Track frame offsets:
#	150
#	14567
#	44583
#	60403
#	78027
#	99606
#	112262
#	138961
#
# Disc length: 2072 seconds
#
# Revision: 1
# Processed by: cddbd v1.5.1PL2 Copyright (c) Steve Scherf et al.
# Submitted via: CDex 1.51
#
DISCID=66081608
DTITLE=Sax Paris Jazz - Joue Charlie Parker - CD 2
DYEAR=2004
DGENRE=Jazz
TTITLE0=Laura
TTITLE1=Embraceable you
TTITLE2=Everything happens to me
TTITLE3=The gipsy
TTITLE4=Stardust
TTITLE5=Summertime
TTITLE6=Medley ballades "What's new and Smoke gets in your eyes"
TTITLE7=My funny Valentine
EXTD=YEAR: 2004
EXTT0=
EXTT1=
EXTT2=
EXTT3=
EXTT4=
EXTT5=
EXTT6=
EXTT7=
PLAYORDER=
